<svg id="SvgjsSvg1022" width="288" height="288" xmlns="http://www.w3.org/2000/svg" version="1.1" xmlns:xlink="http://www.w3.org/1999/xlink" xmlns:svgjs="http://svgjs.com/svgjs"><defs id="SvgjsDefs1023"></defs><g id="SvgjsG1024"><svg xmlns="http://www.w3.org/2000/svg" fill="none" viewBox="0 0 24 24" width="288" height="288"><path stroke="#020202" stroke-linecap="round" stroke-linejoin="round" stroke-width="1.5" d="M18.0025 9.34189V17.0021C18.0025 19.2121 16.2109 21.0037 14.0008 21.0037H9.99916C7.7891 21.0037 5.9975 19.2121 5.9975 17.0021V9.34189L4.54289 9.8421C4.06847 10.0046 3.54706 9.79071 3.32338 9.34189L2.10187 6.89788C1.98205 6.65703 1.96427 6.37807 2.05255 6.12396C2.14083 5.86985 2.32773 5.662 2.57107 5.54731L7.18999 3.37641C7.72269 3.126 8.30408 2.99625 8.8927 2.99625H15.1083C15.6962 2.99649 16.2769 3.12629 16.809 3.37641L21.4279 5.54731C21.6714 5.66181 21.8586 5.86959 21.947 6.12372C22.0355 6.37785 22.0179 6.6569 21.8981 6.89788L20.6766 9.34289C20.4529 9.79171 19.9315 10.0056 19.4571 9.8431L18.0025 9.34189Z" clip-rule="evenodd" class="colorStroke323232 svgStroke"></path><path stroke="#020202" stroke-linecap="round" stroke-linejoin="round" stroke-width="1.5" d="M15.5015 2.99625C15.5015 4.93005 13.9338 6.49771 12 6.49771V6.49771C10.0662 6.49771 8.49854 4.93005 8.49854 2.99625" class="colorStroke323232 svgStroke"></path></svg></g></svg>