<svg xmlns="http://www.w3.org/2000/svg" enable-background="new 0 0 512 512" viewBox="0 0 512 512" id="couch"><path d="M501.556,226.368c0-15.743-12.849-28.24-28.236-28.24h-24.436c1.73-3.499,3.479-7.081,5.237-10.774c17.57-37.394-3.766-81.252-43.739-90.242c-102.443-23.021-206.344-23.021-308.786,0c-39.659,8.955-61.495,52.635-43.662,90.242c1.758,3.693,3.502,7.275,5.218,10.774H38.681c-15.816,0-28.236,12.913-28.236,28.24c0,15.572,12.664,28.24,28.236,28.24h5.021c-9.051,31.996-9.159,68.896-0.18,112.466c2.338,11.473,12.47,19.799,24.092,19.799h15.04v37.607c0,4.238,3.432,7.674,7.674,7.674h21.432c3.215,0,6.085-2.001,7.194-5.013l14.894-40.268h244.304l14.894,40.268c1.109,3.012,3.979,5.013,7.194,5.013h21.432c4.241,0,7.674-3.436,7.674-7.674v-37.607h15.04c11.615,0,21.747-8.318,24.092-19.784c8.979-43.587,8.871-80.488-0.185-112.481h5.026C488.891,254.608,501.556,241.94,501.556,226.368z M486.208,226.368c0,7.108-5.785,12.893-12.889,12.893c-6.187-0.003-54.53-0.028-51.647-0.026c-0.015,0-0.028,0.009-0.043,0.009c-1.331-0.026-2.332-1.023-2.332-2.362v-21.027c0-1.334,1.042-2.379,2.376-2.379h51.647C480.172,213.475,486.208,219.104,486.208,226.368z M208.422,307.462c0-2.409,1.963-4.373,4.376-4.373h86.403c2.413,0,4.376,1.963,4.376,4.373v22.167h-95.156V307.462z M318.925,307.462c0-2.409,1.963-4.373,4.369-4.373h86.328c2.413,0,4.376,1.963,4.376,4.373v22.167h-95.073V307.462z M193.075,329.628H98.002v-22.167c0-2.409,1.963-4.373,4.369-4.373h86.328c2.413,0,4.376,1.963,4.376,4.373V329.628z M71.821,180.754c-13.476-28.397,2.721-61.804,33.15-68.602c100.218-22.56,201.816-22.56,302.034,0c30.485,6.775,46.674,40.265,33.226,68.602c-2.921,6.103-5.775,11.866-8.527,17.373h-10.032c-9.772,0-17.723,7.951-17.723,17.727v21.027c0,7.014,4.127,13.034,10.049,15.906v35.482c-1.413-0.322-2.868-0.528-4.376-0.528h-86.328c-4.556,0-8.703,1.617-12.044,4.221c-3.344-2.605-7.492-4.221-12.048-4.221h-86.403c-4.557,0-8.706,1.617-12.05,4.223c-3.344-2.606-7.493-4.223-12.05-4.223H102.37c-1.506,0-2.958,0.205-4.369,0.526v-35.48c5.923-2.872,10.049-8.892,10.049-15.906v-21.027c0-9.776-7.951-17.727-17.723-17.727H80.296C77.566,192.62,74.742,186.857,71.821,180.754z M25.792,226.368c0-6.803,5.575-12.893,12.889-12.893h51.647c1.334,0,2.376,1.045,2.376,2.379v21.027c0,1.339-1.001,2.336-2.332,2.362c-0.015,0-0.028-0.009-0.043-0.009c-0.831,0-53.503,0.027-51.647,0.026C31.577,239.261,25.792,233.476,25.792,226.368z M106.417,416.807h-8.415v-29.934h19.484L106.417,416.807z M413.998,416.807h-8.415l-11.068-29.934h19.484V416.807z M453.446,363.994c0,0.004,0,0.011,0,0.015c-0.892,4.354-4.699,7.516-9.06,7.516H67.614c-4.361,0-8.168-3.162-9.06-7.531c-8.863-43.043-8.526-78.9,1.064-109.386h23.036c0,28.885,0,54.323,0,82.694v0.011c0,4.238,3.432,7.674,7.674,7.674c111.079,0,209.227,0,331.344,0c4.241,0,7.674-3.436,7.674-7.674v-0.011c0-28.392,0-53.776,0-82.694h23.028C461.972,285.091,462.316,320.947,453.446,363.994z"></path></svg>